<svg xmlns="http://www.w3.org/2000/svg" viewBox="0 0 72 72">
	<defs>
		<linearGradient id="grad1" gradientUnits="userSpaceOnUse" x1="62.0762" y1="68.5078" x2="10.6387" y2="4.3828">
			<stop offset="0" style="stop-color:#E0B82C"/>
			<stop offset="1" style="stop-color:#FFFF59"/>
		</linearGradient>
		<linearGradient id="grad2" gradientUnits="userSpaceOnUse" x1="14.3252" y1="11.9604" x2="57.5752" y2="67.7729">
			<stop offset="0" style="stop-color:#FF7300"/>
			<stop offset="0.1771" style="stop-color:#F97C01"/>
			<stop offset="0.4705" style="stop-color:#EA9602"/>
			<stop offset="0.5521" style="stop-color:#E59E03"/>
			<stop offset="1" style="stop-color:#E5C500"/>
		</linearGradient>
	</defs>
	<polygon fill="url(#grad1)" points="65.715,53.156 36,70.312 6.285,53.156 6.285,18.844 36,1.688 65.715,18.844"/>
	<path fill="url(#grad2)" d="M9.703,46.211l4.999-4.719c1.36,1.641,2.64,2.6,4.359,2.6c1.959,0,3.199-1.32,3.199-3.92V22.455
		h7.719v17.758c0,3.52-0.88,5.998-2.759,7.879c-1.84,1.84-4.479,2.838-7.679,2.838C14.662,50.93,11.662,48.891,9.703,46.211z
		 M32.462,46.291l4.319-5.158c2.76,2.199,5.839,3.359,9.079,3.359c2.079,0,3.199-0.721,3.199-1.92v-0.08c0-1.16-0.92-1.801-4.72-2.68
		c-5.959-1.359-10.558-3.041-10.558-8.799v-0.08c0-5.199,4.12-8.958,10.838-8.958c4.76,0,8.479,1.28,11.518,3.719l-3.879,5.479
		c-2.56-1.8-5.359-2.759-7.839-2.759c-1.88,0-2.8,0.8-2.8,1.799v0.08c0,1.28,0.96,1.84,4.84,2.72
		c6.438,1.4,10.438,3.479,10.438,8.719v0.08c0,5.719-4.52,9.117-11.318,9.117C40.62,50.93,35.901,49.371,32.462,46.291z"/>
</svg>